<svg width="32" height="32" viewBox="0 0 32 32" fill="none" xmlns="http://www.w3.org/2000/svg">
<path d="M16.0041 5.19531e-07C12.8394 -0.000805767 9.74557 0.936892 7.11385 2.6945C4.48213 4.45212 2.43073 6.95069 1.2191 9.87424C0.00747749 12.7978 -0.309957 16.015 0.306946 19.1189C0.923849 22.2229 2.44738 25.0742 4.68486 27.3123C6.92233 29.5503 9.77325 31.0746 12.8771 31.6923C15.9809 32.31 19.1981 31.9933 22.122 30.7825C25.0458 29.5716 27.545 27.5208 29.3032 24.8895C31.0615 22.2583 32 19.1647 32 16C32 11.7572 30.3148 7.6882 27.3152 4.68773C24.3155 1.68727 20.2468 0.00108148 16.0041 5.19531e-07ZM24.5646 21.4624C24.4699 21.5573 24.3575 21.6326 24.2337 21.684C24.1098 21.7354 23.9771 21.7618 23.8431 21.7618C23.709 21.7618 23.5763 21.7354 23.4525 21.684C23.3287 21.6326 23.2162 21.5573 23.1215 21.4624L21.2382 19.5465L19.3386 21.4624C19.2439 21.5573 19.1315 21.6326 19.0077 21.684C18.8839 21.7354 18.7511 21.7618 18.6171 21.7618C18.483 21.7618 18.3503 21.7354 18.2265 21.684C18.1027 21.6326 17.9902 21.5573 17.8955 21.4624L16.0041 19.5465L14.1004 21.4624C13.9057 21.6474 13.6474 21.7505 13.3789 21.7505C13.1103 21.7505 12.852 21.6474 12.6573 21.4624L10.7577 19.5465L8.8581 21.4624C8.66673 21.6538 8.40719 21.7613 8.13657 21.7613C7.86594 21.7613 7.6064 21.6538 7.41504 21.4624C7.22368 21.2711 7.11617 21.0115 7.11617 20.7409C7.11617 20.4703 7.22368 20.2107 7.41504 20.0194L10.0362 17.3982C10.1308 17.3033 10.2433 17.228 10.3671 17.1766C10.4909 17.1253 10.6237 17.0988 10.7577 17.0988C10.8918 17.0988 11.0245 17.1253 11.1483 17.1766C11.2721 17.228 11.3846 17.3033 11.4792 17.3982L13.3789 19.2978L15.2785 17.3982C15.4732 17.2133 15.7315 17.1101 16 17.1101C16.2685 17.1101 16.5268 17.2133 16.7215 17.3982L18.6211 19.2978L20.5208 17.3982C20.6154 17.3033 20.7279 17.228 20.8517 17.1766C20.9755 17.1253 21.1082 17.0988 21.2423 17.0988C21.3763 17.0988 21.5091 17.1253 21.6329 17.1766C21.7567 17.228 21.8692 17.3033 21.9638 17.3982L24.5646 20.0194C24.6595 20.114 24.7348 20.2265 24.7862 20.3503C24.8375 20.4741 24.864 20.6068 24.864 20.7409C24.864 20.8749 24.8375 21.0077 24.7862 21.1315C24.7348 21.2553 24.6595 21.3677 24.5646 21.4624ZM24.5646 14.6059C24.4699 14.7008 24.3575 14.7761 24.2337 14.8274C24.1098 14.8788 23.9771 14.9053 23.8431 14.9053C23.709 14.9053 23.5763 14.8788 23.4525 14.8274C23.3287 14.7761 23.2162 14.7008 23.1215 14.6059L21.2219 12.7062L19.3223 14.6059C19.2276 14.7008 19.1152 14.7761 18.9914 14.8274C18.8675 14.8788 18.7348 14.9053 18.6008 14.9053C18.4667 14.9053 18.334 14.8788 18.2102 14.8274C18.0864 14.7761 17.9739 14.7008 17.8792 14.6059L16.0041 12.7022L14.1045 14.6018C13.9098 14.7867 13.6515 14.8898 13.3829 14.8898C13.1144 14.8898 12.8561 14.7867 12.6614 14.6018L10.7618 12.7022L8.86217 14.6018C8.76742 14.6965 8.65493 14.7717 8.53113 14.823C8.40733 14.8743 8.27464 14.9006 8.14064 14.9006C8.00664 14.9006 7.87395 14.8743 7.75015 14.823C7.62635 14.7717 7.51387 14.6965 7.41911 14.6018C7.32436 14.507 7.2492 14.3945 7.19792 14.2707C7.14664 14.1469 7.12025 14.0143 7.12025 13.8803C7.12025 13.7463 7.14664 13.6136 7.19792 13.4898C7.2492 13.366 7.32436 13.2535 7.41911 13.1587L10.0403 10.5376C10.1349 10.4427 10.2474 10.3674 10.3712 10.316C10.495 10.2646 10.6277 10.2382 10.7618 10.2382C10.8958 10.2382 11.0286 10.2646 11.1524 10.316C11.2762 10.3674 11.3887 10.4427 11.4833 10.5376L13.3829 12.4372L15.2826 10.5376C15.4773 10.3526 15.7355 10.2495 16.0041 10.2495C16.2726 10.2495 16.5309 10.3526 16.7256 10.5376L18.6252 12.4372L20.5248 10.5376C20.6195 10.4427 20.732 10.3674 20.8558 10.316C20.9796 10.2646 21.1123 10.2382 21.2464 10.2382C21.3804 10.2382 21.5132 10.2646 21.637 10.316C21.7608 10.3674 21.8732 10.4427 21.9679 10.5376L24.5646 13.1628C24.755 13.3538 24.862 13.6126 24.862 13.8823C24.862 14.152 24.755 14.4108 24.5646 14.6018V14.6059Z" fill="url(#paint0_linear_4518_8698)"/>
<defs>
<linearGradient id="paint0_linear_4518_8698" x1="3.35369e-08" y1="15.6734" x2="32" y2="15.6734" gradientUnits="userSpaceOnUse">
<stop stop-color="#F4EDFC"/>
<stop offset="1" stop-color="#FEF5F9"/>
</linearGradient>
</defs>
</svg>
