<svg width="32" height="32" viewBox="0 0 32 32" fill="none" xmlns="http://www.w3.org/2000/svg">
<path d="M16 32C19.1642 32 22.2573 31.0618 24.8883 29.3041C27.5193 27.5463 29.57 25.048 30.7813 22.1248C31.9925 19.2017 32.3099 15.985 31.6932 12.8816C31.0765 9.77808 29.5534 6.92714 27.3166 4.68918C25.0798 2.45122 22.2296 0.926721 19.1264 0.308437C16.0233 -0.309846 12.8065 0.00584376 9.88271 1.2156C6.95895 2.42535 4.45953 4.47484 2.70045 7.10495C0.941368 9.73506 0.00161438 12.8277 2.07735e-06 15.9919C-0.00106892 18.0937 0.411993 20.1751 1.21559 22.1173C2.01918 24.0594 3.19757 25.8242 4.68341 27.3108C6.16925 28.7974 7.93344 29.9767 9.87518 30.7813C11.8169 31.5859 13.8982 32 16 32ZM11.7401 7.94905C12.5712 7.94973 13.3903 8.14692 14.1306 8.52453C14.871 8.90213 15.5115 9.44944 16 10.1218C16.6555 9.22169 17.5791 8.55212 18.6384 8.20897C19.6977 7.86583 20.8385 7.86671 21.8973 8.2115C22.956 8.55628 23.8786 9.22728 24.5327 10.1284C25.1868 11.0295 25.539 12.1145 25.5389 13.228C25.5389 13.4983 25.4315 13.7575 25.2404 13.9486C25.0492 14.1398 24.79 14.2471 24.5197 14.2471C24.2495 14.2471 23.9902 14.1398 23.7991 13.9486C23.608 13.7575 23.5006 13.4983 23.5006 13.228C23.4111 12.4312 23.0312 11.6952 22.4333 11.1608C21.8355 10.6264 21.0617 10.3309 20.2599 10.3309C19.458 10.3309 18.6842 10.6264 18.0864 11.1608C17.4886 11.6952 17.1086 12.4312 17.0191 13.228V23.4395C17.0191 23.7098 16.9117 23.969 16.7206 24.1601C16.5295 24.3512 16.2703 24.4586 16 24.4586C15.7297 24.4586 15.4705 24.3512 15.2794 24.1601C15.0883 23.969 14.9809 23.7098 14.9809 23.4395V13.2117C14.8914 12.4149 14.5114 11.6789 13.9136 11.1445C13.3158 10.6101 12.542 10.3146 11.7401 10.3146C10.9383 10.3146 10.1645 10.6101 9.56666 11.1445C8.96884 11.6789 8.58887 12.4149 8.49936 13.2117C8.49936 13.482 8.39199 13.7412 8.20087 13.9323C8.00975 14.1235 7.75054 14.2308 7.48026 14.2308C7.20997 14.2308 6.95076 14.1235 6.75964 13.9323C6.56852 13.7412 6.46115 13.482 6.46115 13.2117C6.4708 11.8161 7.03059 10.4807 8.01897 9.49537C9.00735 8.51004 10.3445 7.95438 11.7401 7.94905Z" fill="url(#paint0_linear_4518_8026)"/>
<defs>
<linearGradient id="paint0_linear_4518_8026" x1="3.35369e-08" y1="15.6734" x2="32" y2="15.6734" gradientUnits="userSpaceOnUse">
<stop stop-color="#F4EDFC"/>
<stop offset="1" stop-color="#FEF5F9"/>
</linearGradient>
</defs>
</svg>
