<svg width="32" height="32" viewBox="0 0 32 32" fill="none" xmlns="http://www.w3.org/2000/svg">
<path d="M11.1689 14.5325C11.9794 14.5325 12.6365 13.8755 12.6365 13.065C12.6365 12.2545 11.9794 11.5975 11.1689 11.5975C10.3585 11.5975 9.70143 12.2545 9.70143 13.065C9.70143 13.8755 10.3585 14.5325 11.1689 14.5325Z" fill="url(#paint0_linear_4518_6312)"/>
<path d="M20.8306 20.4026C21.6411 20.4026 22.2981 19.7455 22.2981 18.935C22.2981 18.1246 21.6411 17.4675 20.8306 17.4675C20.0201 17.4675 19.3631 18.1246 19.3631 18.935C19.3631 19.7455 20.0201 20.4026 20.8306 20.4026Z" fill="url(#paint1_linear_4518_6312)"/>
<path d="M16 0C12.8355 0 9.74207 0.938383 7.11088 2.69649C4.4797 4.45459 2.42894 6.95345 1.21793 9.87706C0.00693238 12.8007 -0.309921 16.0177 0.307443 19.1214C0.924806 22.2251 2.44866 25.0761 4.6863 27.3137C6.92394 29.5513 9.77486 31.0752 12.8786 31.6926C15.9823 32.3099 19.1993 31.9931 22.1229 30.7821C25.0466 29.5711 27.5454 27.5203 29.3035 24.8891C31.0616 22.2579 32 19.1645 32 16C32 11.7565 30.3143 7.68687 27.3137 4.68629C24.3131 1.68571 20.2435 0 16 0ZM22.9992 21.6825C20.9869 23.6508 18.2795 24.7457 15.4647 24.7297C12.6499 24.7137 9.95511 23.5879 7.96536 21.5969C7.862 21.5045 7.77858 21.392 7.7202 21.2663C7.66182 21.1406 7.62971 21.0042 7.62583 20.8657C7.62196 20.7271 7.64639 20.5892 7.69765 20.4604C7.7489 20.3315 7.8259 20.2146 7.92392 20.1165C8.02195 20.0185 8.13895 19.9415 8.26776 19.8902C8.39656 19.839 8.53448 19.8146 8.67305 19.8184C8.81163 19.8223 8.94796 19.8544 9.0737 19.9128C9.19944 19.9712 9.31194 20.0546 9.40434 20.158C10.6409 21.3963 12.2243 22.23 13.9451 22.5489C15.6659 22.8677 17.4429 22.6566 19.041 21.9434C18.3974 21.5615 17.8929 20.9836 17.6013 20.2944C17.3097 19.6051 17.2464 18.8406 17.4205 18.1127C17.5947 17.3848 17.9972 16.7318 18.5692 16.2492C19.1412 15.7665 19.8527 15.4796 20.5994 15.4304C21.3462 15.3812 22.0892 15.5722 22.7196 15.9756C23.35 16.379 23.8347 16.9736 24.1029 17.6723C24.3711 18.371 24.4087 19.1372 24.2101 19.8588C24.0115 20.5804 23.5872 21.2194 22.9992 21.6825ZM24.051 11.842C23.9563 11.9369 23.8438 12.0122 23.72 12.0636C23.5962 12.115 23.4635 12.1414 23.3294 12.1414C23.1954 12.1414 23.0627 12.115 22.9388 12.0636C22.815 12.0122 22.7026 11.9369 22.6079 11.842C21.3713 10.6037 19.7879 9.76996 18.0671 9.45114C16.3464 9.13232 14.5694 9.34344 12.9712 10.0566C13.6148 10.4385 14.1194 11.0164 14.4109 11.7056C14.7025 12.3949 14.7659 13.1594 14.5917 13.8873C14.4176 14.6151 14.015 15.2682 13.443 15.7508C12.871 16.2335 12.1596 16.5204 11.4128 16.5696C10.666 16.6188 9.92305 16.4278 9.29265 16.0244C8.66226 15.621 8.1775 15.0264 7.90931 14.3277C7.64112 13.629 7.60357 12.8628 7.80217 12.1412C8.00076 11.4196 8.42506 10.7805 9.013 10.3175C11.0255 8.348 13.7338 7.25226 16.5496 7.26829C19.3653 7.28431 22.061 8.41082 24.051 10.4031C24.2414 10.5941 24.3483 10.8528 24.3483 11.1225C24.3483 11.3923 24.2414 11.651 24.051 11.842Z" fill="url(#paint2_linear_4518_6312)"/>
<defs>
<linearGradient id="paint0_linear_4518_6312" x1="3.35369e-08" y1="15.6734" x2="32" y2="15.6734" gradientUnits="userSpaceOnUse">
<stop stop-color="#F4EDFC"/>
<stop offset="1" stop-color="#FEF5F9"/>
</linearGradient>
<linearGradient id="paint1_linear_4518_6312" x1="3.35369e-08" y1="15.6734" x2="32" y2="15.6734" gradientUnits="userSpaceOnUse">
<stop stop-color="#F4EDFC"/>
<stop offset="1" stop-color="#FEF5F9"/>
</linearGradient>
<linearGradient id="paint2_linear_4518_6312" x1="3.35369e-08" y1="15.6734" x2="32" y2="15.6734" gradientUnits="userSpaceOnUse">
<stop stop-color="#F4EDFC"/>
<stop offset="1" stop-color="#FEF5F9"/>
</linearGradient>
</defs>
</svg>
