<svg width="32" height="32" viewBox="0 0 32 32" fill="none" xmlns="http://www.w3.org/2000/svg">
<path d="M16 0C12.8355 0 9.74207 0.938383 7.11088 2.69649C4.4797 4.45459 2.42894 6.95345 1.21793 9.87706C0.0069323 12.8007 -0.309921 16.0177 0.307443 19.1214C0.924806 22.2251 2.44866 25.0761 4.6863 27.3137C6.92394 29.5513 9.77486 31.0752 12.8786 31.6926C15.9823 32.3099 19.1993 31.9931 22.1229 30.7821C25.0466 29.5711 27.5454 27.5203 29.3035 24.8891C31.0616 22.2579 32 19.1645 32 16C32 11.7565 30.3143 7.68687 27.3137 4.68629C24.3131 1.68571 20.2435 0 16 0ZM23.6759 21.9231C23.478 22.5325 23.1049 23.0701 22.6033 23.4687C22.1017 23.8674 21.4937 24.1094 20.8554 24.1647C20.217 24.2199 19.5765 24.0858 19.0139 23.7793C18.4512 23.4727 17.9914 23.0071 17.6917 22.4408C17.5739 22.2117 17.4836 21.9695 17.4227 21.7192L14.9361 23.5129C14.7166 23.6707 14.4434 23.7349 14.1766 23.6913C13.9098 23.6478 13.6712 23.5 13.5134 23.2805C13.3555 23.061 13.2913 22.7878 13.3349 22.521C13.3785 22.2542 13.5263 22.0157 13.7457 21.8578L17.3412 19.2652V11.1124C17.3228 10.788 17.181 10.483 16.9449 10.2599C16.7087 10.0368 16.3962 9.91248 16.0713 9.91248C15.7465 9.91248 15.4339 10.0368 15.1978 10.2599C14.9617 10.483 14.8199 10.788 14.8015 11.1124V17.496C14.8015 17.7663 14.6942 18.0255 14.503 18.2167C14.3119 18.4078 14.0527 18.5152 13.7824 18.5152C13.5121 18.5152 13.2529 18.4078 13.0618 18.2167C12.8707 18.0255 12.7633 17.7663 12.7633 17.496V11.1042C12.7633 10.7669 12.6293 10.4434 12.3908 10.2049C12.1523 9.96635 11.8288 9.83235 11.4915 9.83235C11.1542 9.83235 10.8307 9.96635 10.5921 10.2049C10.3536 10.4434 10.2196 10.7669 10.2196 11.1042C10.2196 11.3745 10.1123 11.6337 9.92113 11.8248C9.73001 12.0159 9.4708 12.1233 9.20051 12.1233C8.93023 12.1233 8.67102 12.0159 8.4799 11.8248C8.28878 11.6337 8.18141 11.3745 8.18141 11.1042C8.1804 10.455 8.37056 9.81985 8.72816 9.27801C9.08577 8.73617 9.59499 8.31161 10.1923 8.0573C10.7896 7.80298 11.4486 7.73016 12.0871 7.84792C12.7255 7.96568 13.3151 8.2688 13.7824 8.71949C14.2499 8.27017 14.8392 7.96824 15.4769 7.85125C16.1147 7.73427 16.7727 7.80741 17.3693 8.06156C17.9658 8.31572 18.4744 8.73967 18.8318 9.28067C19.1892 9.82166 19.3796 10.4558 19.3794 11.1042V17.9322C20.0749 17.6531 20.8458 17.6242 21.5603 17.8507C22.3783 18.1138 23.0595 18.6892 23.4556 19.4518C23.8518 20.2143 23.931 21.1024 23.6759 21.9231Z" fill="url(#paint0_linear_4518_8482)"/>
<path d="M20.9406 19.7951C20.7724 19.7396 20.5939 19.722 20.4181 19.7436C20.2423 19.7653 20.0734 19.8257 19.9237 19.9204C19.774 20.0151 19.6472 20.1419 19.5523 20.2915C19.4575 20.4411 19.397 20.6099 19.3752 20.7857V20.9529C19.3768 20.9854 19.3768 21.0181 19.3752 21.0507C19.3914 21.2729 19.4681 21.4865 19.5968 21.6684C19.7256 21.8502 19.9016 21.9934 20.1058 22.0826C20.31 22.1717 20.5347 22.2033 20.7556 22.174C20.9765 22.1447 21.1852 22.0557 21.3592 21.9164C21.5331 21.7772 21.6657 21.593 21.7426 21.3839C21.8196 21.1748 21.8379 20.9486 21.7956 20.7298C21.7534 20.511 21.6522 20.3079 21.5029 20.1425C21.3536 19.9771 21.162 19.8555 20.9487 19.7911L20.9406 19.7951Z" fill="url(#paint1_linear_4518_8482)"/>
<defs>
<linearGradient id="paint0_linear_4518_8482" x1="3.35369e-08" y1="15.6734" x2="32" y2="15.6734" gradientUnits="userSpaceOnUse">
<stop stop-color="#F4EDFC"/>
<stop offset="1" stop-color="#FEF5F9"/>
</linearGradient>
<linearGradient id="paint1_linear_4518_8482" x1="3.35369e-08" y1="15.6734" x2="32" y2="15.6734" gradientUnits="userSpaceOnUse">
<stop stop-color="#F4EDFC"/>
<stop offset="1" stop-color="#FEF5F9"/>
</linearGradient>
</defs>
</svg>
