<svg width="32" height="32" viewBox="0 0 32 32" fill="none" xmlns="http://www.w3.org/2000/svg">
<path d="M9.60414 19.9093C10.6127 19.9093 11.4304 19.0369 11.4304 17.9608C11.4304 16.8847 10.6127 16.0123 9.60414 16.0123C8.59554 16.0123 7.7779 16.8847 7.7779 17.9608C7.7779 19.0369 8.59554 19.9093 9.60414 19.9093Z" fill="url(#paint0_linear_4518_2958)"/>
<path d="M16 0C12.8355 0 9.74207 0.938383 7.11088 2.69649C4.4797 4.45459 2.42894 6.95345 1.21793 9.87706C0.00693262 12.8007 -0.309921 16.0177 0.307443 19.1214C0.924806 22.2251 2.44866 25.0761 4.6863 27.3137C6.92394 29.5513 9.77486 31.0752 12.8786 31.6926C15.9823 32.3099 19.1993 31.9931 22.1229 30.7821C25.0466 29.5711 27.5454 27.5203 29.3035 24.8891C31.0616 22.2579 32 19.1645 32 16C32 13.8988 31.5861 11.8183 30.7821 9.87706C29.978 7.93585 28.7994 6.17203 27.3137 4.68629C25.828 3.20055 24.0641 2.022 22.1229 1.21793C20.1817 0.413852 18.1012 0 16 0ZM22.0454 24.7236C20.909 24.7043 19.8267 24.2351 19.0358 23.4189C18.2449 22.6028 17.8099 21.5063 17.8262 20.3699V11.626C17.839 11.3319 17.792 11.0383 17.6883 10.7629C17.5845 10.4875 17.4261 10.2359 17.2225 10.0233C17.0189 9.81072 16.7744 9.64155 16.5037 9.52598C16.233 9.41041 15.9417 9.35083 15.6474 9.35083C15.3531 9.35083 15.0618 9.41041 14.7911 9.52598C14.5204 9.64155 14.2759 9.81072 14.0723 10.0233C13.8687 10.2359 13.7103 10.4875 13.6065 10.7629C13.5028 11.0383 13.4558 11.3319 13.4685 11.626V17.8752C13.4685 17.8752 13.4685 17.8752 13.4685 17.9037C13.4685 17.9322 13.4685 17.9445 13.4685 17.9608C13.4453 18.7206 13.1987 19.4567 12.7596 20.0773C12.3205 20.6978 11.7082 21.1752 10.9994 21.4498C10.2906 21.7244 9.51651 21.7841 8.77393 21.6215C8.03136 21.4588 7.35317 21.0809 6.82407 20.5351C6.29498 19.9892 5.93843 19.2996 5.79895 18.5523C5.65947 17.805 5.74326 17.0332 6.03983 16.3333C6.33641 15.6333 6.83263 15.0363 7.46653 14.6167C8.10043 14.1971 8.84389 13.9736 9.60408 13.974C10.2432 13.9735 10.8718 14.1362 11.4303 14.4469V11.626C11.4128 11.0612 11.5088 10.4986 11.7129 9.97158C11.9169 9.4446 12.2247 8.96397 12.618 8.55822C13.0114 8.15248 13.4822 7.82988 14.0026 7.60957C14.523 7.38927 15.0823 7.27575 15.6474 7.27575C16.2125 7.27575 16.7718 7.38927 17.2922 7.60957C17.8126 7.82988 18.2834 8.15248 18.6768 8.55822C19.0701 8.96397 19.3779 9.4446 19.5819 9.97158C19.7859 10.4986 19.882 11.0612 19.8645 11.626V20.3699C19.8517 20.664 19.8987 20.9576 20.0024 21.233C20.1062 21.5085 20.2646 21.76 20.4682 21.9726C20.6718 22.1852 20.9163 22.3544 21.187 22.4699C21.4577 22.5855 21.749 22.6451 22.0433 22.6451C22.3376 22.6451 22.6289 22.5855 22.8996 22.4699C23.1703 22.3544 23.4148 22.1852 23.6184 21.9726C23.822 21.76 23.9804 21.5085 24.0842 21.233C24.188 20.9576 24.2349 20.664 24.2222 20.3699C24.2222 20.0996 24.3295 19.8404 24.5207 19.6493C24.7118 19.4582 24.971 19.3508 25.2413 19.3508C25.5116 19.3508 25.7708 19.4582 25.9619 19.6493C26.153 19.8404 26.2604 20.0996 26.2604 20.3699C26.2767 21.5056 25.8423 22.6015 25.0523 23.4175C24.2622 24.2335 23.181 24.7032 22.0454 24.7236Z" fill="url(#paint1_linear_4518_2958)"/>
<defs>
<linearGradient id="paint0_linear_4518_2958" x1="3.35369e-08" y1="15.6734" x2="32" y2="15.6734" gradientUnits="userSpaceOnUse">
<stop stop-color="#F4EDFC"/>
<stop offset="1" stop-color="#FEF5F9"/>
</linearGradient>
<linearGradient id="paint1_linear_4518_2958" x1="3.35369e-08" y1="15.6734" x2="32" y2="15.6734" gradientUnits="userSpaceOnUse">
<stop stop-color="#F4EDFC"/>
<stop offset="1" stop-color="#FEF5F9"/>
</linearGradient>
</defs>
</svg>
