<svg width="32" height="32" viewBox="0 0 32 32" fill="none" xmlns="http://www.w3.org/2000/svg">
<path d="M16 0C12.8355 0 9.74207 0.938383 7.11088 2.69649C4.4797 4.45459 2.42894 6.95345 1.21793 9.87706C0.00693235 12.8007 -0.309921 16.0177 0.307443 19.1214C0.924806 22.2251 2.44866 25.0761 4.6863 27.3137C6.92394 29.5513 9.77486 31.0752 12.8786 31.6926C15.9823 32.3099 19.1993 31.9931 22.1229 30.7821C25.0466 29.5711 27.5454 27.5203 29.3035 24.8891C31.0616 22.2579 32 19.1645 32 16C32 13.8988 31.5861 11.8183 30.7821 9.87706C29.978 7.93585 28.7994 6.17203 27.3137 4.68629C25.828 3.20055 24.0641 2.022 22.1229 1.21793C20.1817 0.413852 18.1012 0 16 0ZM24.6991 24.2588H7.3009C7.03061 24.2588 6.7714 24.1515 6.58028 23.9604C6.38916 23.7692 6.28179 23.51 6.28179 23.2397C6.28179 22.9695 6.38916 22.7102 6.58028 22.5191C6.7714 22.328 7.03061 22.2206 7.3009 22.2206H24.6991C24.9694 22.2206 25.2286 22.328 25.4197 22.5191C25.6108 22.7102 25.7182 22.9695 25.7182 23.2397C25.7182 23.51 25.6108 23.7692 25.4197 23.9604C25.2286 24.1515 24.9694 24.2588 24.6991 24.2588ZM24.6991 20.692H20.5289C20.3271 20.6923 20.1297 20.6328 19.9618 20.5208C19.7939 20.4088 19.663 20.2495 19.5857 20.0631C19.5084 19.8767 19.4882 19.6715 19.5277 19.4735C19.5671 19.2756 19.6645 19.0939 19.8074 18.9513C20.5587 18.1999 21.0704 17.2426 21.2777 16.2004C21.485 15.1582 21.3785 14.0779 20.9719 13.0962C20.5652 12.1145 19.8766 11.2754 18.9931 10.6851C18.1095 10.0947 17.0708 9.77963 16.0082 9.77963C14.9455 9.77963 13.9068 10.0947 13.0233 10.6851C12.1397 11.2754 11.4511 12.1145 11.0444 13.0962C10.6378 14.0779 10.5313 15.1582 10.7386 16.2004C10.9459 17.2426 11.4576 18.1999 12.2089 18.9513C12.3518 19.0939 12.4492 19.2756 12.4886 19.4735C12.5281 19.6715 12.5079 19.8767 12.4306 20.0631C12.3534 20.2495 12.2225 20.4088 12.0545 20.5208C11.8866 20.6328 11.6892 20.6923 11.4874 20.692H7.3009C7.03061 20.692 6.7714 20.5846 6.58028 20.3935C6.38916 20.2024 6.28179 19.9431 6.28179 19.6729C6.28179 19.4026 6.38916 19.1434 6.58028 18.9522C6.7714 18.7611 7.03061 18.6538 7.3009 18.6538H9.46141C8.8573 17.5246 8.5561 16.2582 8.58715 14.978C8.61821 13.6978 8.98046 12.4475 9.6386 11.349C10.2967 10.2504 11.2283 9.3412 12.3425 8.7099C13.4566 8.07859 14.7153 7.74676 15.9959 7.74676C17.2765 7.74676 18.5352 8.07859 19.6494 8.7099C20.7636 9.3412 21.6951 10.2504 22.3533 11.349C23.0114 12.4475 23.3736 13.6978 23.4047 14.978C23.4358 16.2582 23.1346 17.5246 22.5305 18.6538H24.695C24.9653 18.6538 25.2245 18.7611 25.4157 18.9522C25.6068 19.1434 25.7141 19.4026 25.7141 19.6729C25.7141 19.9431 25.6068 20.2024 25.4157 20.3935C25.2245 20.5846 24.9653 20.692 24.695 20.692H24.6991Z" fill="url(#paint0_linear_4518_128)"/>
<defs>
<linearGradient id="paint0_linear_4518_128" x1="3.35369e-08" y1="15.6734" x2="32" y2="15.6734" gradientUnits="userSpaceOnUse">
<stop stop-color="#F4EDFC"/>
<stop offset="1" stop-color="#FEF5F9"/>
</linearGradient>
</defs>
</svg>
