<svg width="32" height="32" viewBox="0 0 32 32" fill="none" xmlns="http://www.w3.org/2000/svg">
<path d="M16 0C12.8355 0 9.74207 0.938384 7.11088 2.69649C4.4797 4.45459 2.42894 6.95345 1.21793 9.87706C0.00693262 12.8007 -0.309921 16.0177 0.307443 19.1214C0.924806 22.2251 2.44866 25.0761 4.6863 27.3137C6.92394 29.5513 9.77486 31.0752 12.8786 31.6926C15.9823 32.3099 19.1993 31.9931 22.1229 30.7821C25.0466 29.5711 27.5454 27.5203 29.3035 24.8891C31.0616 22.2579 32 19.1645 32 16C32 11.7565 30.3143 7.68687 27.3137 4.68629C24.3131 1.68571 20.2435 0 16 0ZM23.7452 17.0191H20.8673C21.0931 19.0994 22.0238 21.0399 23.5047 22.5182C23.6961 22.7096 23.8036 22.9691 23.8036 23.2397C23.8036 23.5104 23.6961 23.7699 23.5047 23.9613C23.3134 24.1526 23.0538 24.2601 22.7832 24.2601C22.5126 24.2601 22.253 24.1526 22.0617 23.9613C20.1945 22.106 19.0399 19.6526 18.8005 17.0313H13.1954C12.956 19.6526 11.8015 22.106 9.93427 23.9613C9.74291 24.1526 9.48337 24.2601 9.21274 24.2601C8.94212 24.2601 8.68258 24.1526 8.49122 23.9613C8.29985 23.7699 8.19235 23.5104 8.19235 23.2397C8.19235 22.9691 8.29985 22.7096 8.49122 22.5182C9.97068 21.0393 10.8999 19.0989 11.1246 17.0191H8.24255C7.97227 17.0191 7.71306 16.9117 7.52194 16.7206C7.33082 16.5295 7.22345 16.2703 7.22345 16C7.22345 15.7297 7.33082 15.4705 7.52194 15.2794C7.71306 15.0883 7.97227 14.9809 8.24255 14.9809H11.1327C10.9077 12.9012 9.97856 10.9609 8.49937 9.48178C8.39576 9.38968 8.31204 9.27741 8.25331 9.15184C8.19458 9.02627 8.1621 8.89003 8.15783 8.75147C8.15356 8.61292 8.17761 8.47494 8.2285 8.346C8.27939 8.21705 8.35605 8.09984 8.4538 8.00154C8.55154 7.90324 8.66832 7.82592 8.79697 7.7743C8.92563 7.72268 9.06346 7.69785 9.20204 7.70133C9.34062 7.70481 9.47704 7.73653 9.60294 7.79454C9.72884 7.85255 9.84159 7.93564 9.93427 8.03872C11.8015 9.89401 12.956 12.3474 13.1954 14.9687H18.8168C19.0562 12.3474 20.2108 9.89401 22.078 8.03872C22.1727 7.94397 22.2852 7.86881 22.409 7.81753C22.5328 7.76625 22.6655 7.73986 22.7995 7.73986C22.9335 7.73986 23.0662 7.76625 23.19 7.81753C23.3138 7.86881 23.4263 7.94397 23.521 8.03872C23.6158 8.13348 23.6909 8.24597 23.7422 8.36977C23.7935 8.49357 23.8199 8.62625 23.8199 8.76025C23.8199 8.89425 23.7935 9.02694 23.7422 9.15074C23.6909 9.27454 23.6158 9.38703 23.521 9.48178C22.0418 10.9609 21.1127 12.9012 20.8876 14.9809H23.7778C24.0481 14.9809 24.3073 15.0883 24.4985 15.2794C24.6896 15.4705 24.7969 15.7297 24.7969 16C24.7969 16.2703 24.6896 16.5295 24.4985 16.7206C24.3073 16.9117 24.0481 17.0191 23.7778 17.0191H23.7452Z" fill="url(#paint0_linear_4518_8687)"/>
<defs>
<linearGradient id="paint0_linear_4518_8687" x1="3.35369e-08" y1="15.6734" x2="32" y2="15.6734" gradientUnits="userSpaceOnUse">
<stop stop-color="#F4EDFC"/>
<stop offset="1" stop-color="#FEF5F9"/>
</linearGradient>
</defs>
</svg>
