<svg width="32" height="32" viewBox="0 0 32 32" fill="none" xmlns="http://www.w3.org/2000/svg">
<path d="M16.0163 8.31247e-06C12.8511 -0.00321736 9.75608 0.932424 7.12275 2.68856C4.48942 4.4447 2.43612 6.94243 1.22262 9.86576C0.00911717 12.7891 -0.310064 16.0067 0.305457 19.1114C0.920978 22.2162 2.44354 25.0687 4.68053 27.3079C6.91752 29.5472 9.76842 31.0727 12.8726 31.6914C15.9767 32.31 19.1946 31.9942 22.1192 30.7836C25.0437 29.5731 27.5436 27.5224 29.3024 24.8908C31.0612 22.2593 32 19.1652 32 16C32 11.7594 30.3165 7.69217 27.3195 4.69206C24.3224 1.69195 20.2569 0.00432998 16.0163 8.31247e-06ZM23.9694 9.24536L22.2818 17.3167C22.2621 17.4542 22.2145 17.5862 22.1419 17.7047C22.0692 17.8231 21.9732 17.9255 21.8596 18.0054C21.746 18.0854 21.6173 18.1413 21.4813 18.1697C21.3453 18.1981 21.2049 18.1984 21.0688 18.1705C20.9327 18.1427 20.8037 18.0873 20.6898 18.0078C20.5759 17.9283 20.4794 17.8264 20.4063 17.7082C20.3332 17.5901 20.2851 17.4583 20.2648 17.3208C20.2445 17.1834 20.2526 17.0433 20.2884 16.909L21.2749 12.1926L13.5297 19.9378L15.8206 22.2288C15.9154 22.3235 15.9906 22.436 16.0418 22.5598C16.0931 22.6836 16.1195 22.8163 16.1195 22.9503C16.1195 23.0843 16.0931 23.217 16.0418 23.3408C15.9906 23.4646 15.9154 23.5771 15.8206 23.6719C15.7259 23.7666 15.6134 23.8418 15.4896 23.893C15.3658 23.9443 15.2331 23.9707 15.0991 23.9707C14.9651 23.9707 14.8324 23.9443 14.7086 23.893C14.5848 23.8418 14.4723 23.7666 14.3776 23.6719L12.0866 21.3809L10.0484 23.4191C9.85705 23.6105 9.59751 23.718 9.32688 23.718C9.05626 23.718 8.79672 23.6105 8.60536 23.4191C8.41399 23.2277 8.30649 22.9682 8.30649 22.6976C8.30649 22.427 8.41399 22.1674 8.60536 21.9761L10.6436 19.9378L8.35669 17.6306C8.16533 17.4392 8.05783 17.1797 8.05783 16.909C8.05783 16.6384 8.16533 16.3789 8.35669 16.1875C8.54805 15.9962 8.8076 15.8887 9.07822 15.8887C9.34885 15.8887 9.60839 15.9962 9.79975 16.1875L12.0907 18.4785L19.8359 10.7333L15.1154 11.732C14.9812 11.7678 14.8411 11.7759 14.7036 11.7556C14.5662 11.7353 14.4344 11.6872 14.3162 11.6141C14.1981 11.541 14.0961 11.4445 14.0166 11.3306C13.9371 11.2167 13.8818 11.0877 13.8539 10.9516C13.8261 10.8155 13.8264 10.6751 13.8548 10.5391C13.8832 10.4031 13.9391 10.2744 14.019 10.1608C14.099 10.0472 14.2013 9.95115 14.3198 9.87854C14.4382 9.80594 14.5703 9.75832 14.7078 9.73861L22.771 8.05096C22.8468 8.04241 22.9234 8.04241 22.9992 8.05096H23.0563C23.1141 8.05555 23.1714 8.06509 23.2275 8.0795H23.2927C23.3476 8.09798 23.4008 8.12117 23.4517 8.1488L23.5088 8.17733C23.6448 8.25793 23.7584 8.37148 23.839 8.50752L23.8716 8.56459C23.8974 8.613 23.9192 8.66345 23.9368 8.71542L23.9572 8.7888C23.9711 8.84228 23.9807 8.89681 23.9857 8.95185C23.9857 8.97224 23.9857 8.99669 23.9857 9.01708C23.9889 9.09354 23.9834 9.17012 23.9694 9.24536Z" fill="url(#paint0_linear_4518_5997)"/>
<defs>
<linearGradient id="paint0_linear_4518_5997" x1="3.35369e-08" y1="15.6734" x2="32" y2="15.6734" gradientUnits="userSpaceOnUse">
<stop stop-color="#F4EDFC"/>
<stop offset="1" stop-color="#FEF5F9"/>
</linearGradient>
</defs>
</svg>
