<svg width="32" height="32" viewBox="0 0 32 32" fill="none" xmlns="http://www.w3.org/2000/svg">
<path d="M16.0167 8.31247e-06C12.8515 -0.00321736 9.75651 0.932424 7.12318 2.68856C4.48985 4.4447 2.43655 6.94243 1.22305 9.86576C0.00954442 12.7891 -0.309636 16.0067 0.305884 19.1114C0.921405 22.2162 2.44397 25.0687 4.68096 27.3079C6.91795 29.5472 9.76884 31.0727 12.873 31.6914C15.9771 32.31 19.195 31.9942 22.1196 30.7836C25.0442 29.5731 27.544 27.5224 29.3028 24.8908C31.0616 22.2593 32.0004 19.1652 32.0004 16C32.0004 11.7594 30.317 7.69217 27.3199 4.69206C24.3228 1.69195 20.2574 0.00432998 16.0167 8.31247e-06ZM26.8764 21.3238C26.72 21.4834 26.5149 21.5865 26.2935 21.6168C26.0721 21.647 25.8469 21.6028 25.6534 21.491C25.4692 22.3247 24.9833 23.0609 24.2891 23.5581C23.5949 24.0552 22.7414 24.2782 21.8927 24.1841C21.0441 24.09 20.2602 23.6856 19.6917 23.0485C19.1232 22.4113 18.8103 21.5866 18.8132 20.7327V10.9738C18.8229 10.8037 18.7978 10.6334 18.7394 10.4734C18.681 10.3133 18.5905 10.1669 18.4736 10.0431C18.3566 9.91921 18.2156 9.82055 18.0591 9.75312C17.9027 9.68569 17.7341 9.6509 17.5637 9.6509C17.3934 9.6509 17.2248 9.68569 17.0684 9.75312C16.9119 9.82055 16.7709 9.91921 16.6539 10.0431C16.537 10.1669 16.4465 10.3133 16.3881 10.4734C16.3297 10.6334 16.3046 10.8037 16.3143 10.9738V17.3045C16.3143 17.5747 16.2069 17.834 16.0158 18.0251C15.8247 18.2162 15.5655 18.3236 15.2952 18.3236C15.0249 18.3236 14.7657 18.2162 14.5746 18.0251C14.3835 17.834 14.2761 17.5747 14.2761 17.3045V10.9738C14.2858 10.8037 14.2607 10.6334 14.2023 10.4734C14.1439 10.3133 14.0535 10.1669 13.9365 10.0431C13.8195 9.91921 13.6785 9.82055 13.522 9.75312C13.3656 9.68569 13.197 9.6509 13.0267 9.6509C12.8563 9.6509 12.6878 9.68569 12.5313 9.75312C12.3749 9.82055 12.2338 9.91921 12.1169 10.0431C11.9999 10.1669 11.9094 10.3133 11.851 10.4734C11.7926 10.6334 11.7675 10.8037 11.7772 10.9738V17.3045C11.7772 17.5747 11.6699 17.834 11.4788 18.0251C11.2876 18.2162 11.0284 18.3236 10.7581 18.3236C10.4879 18.3236 10.2286 18.2162 10.0375 18.0251C9.8464 17.834 9.73903 17.5747 9.73903 17.3045V10.9738C9.74875 10.8037 9.72364 10.6334 9.66524 10.4734C9.60685 10.3133 9.51639 10.1669 9.39942 10.0431C9.28244 9.91921 9.14141 9.82055 8.98497 9.75312C8.82853 9.68569 8.65996 9.6509 8.4896 9.6509C8.31925 9.6509 8.15068 9.68569 7.99424 9.75312C7.8378 9.82055 7.69677 9.91921 7.57979 10.0431C7.46282 10.1669 7.37236 10.3133 7.31396 10.4734C7.25557 10.6334 7.23046 10.8037 7.24018 10.9738C7.24018 11.244 7.13281 11.5033 6.94169 11.6944C6.75057 11.8855 6.49135 11.9929 6.22107 11.9929C5.95079 11.9929 5.69157 11.8855 5.50045 11.6944C5.30933 11.5033 5.20196 11.244 5.20196 10.9738C5.20242 10.3304 5.39174 9.70134 5.74645 9.1646C6.10116 8.62786 6.60564 8.20707 7.19732 7.95442C7.78899 7.70178 8.44182 7.6284 9.07482 7.74339C9.70782 7.85838 10.2931 8.15668 10.7581 8.60128C11.3664 8.01228 12.18 7.68296 13.0267 7.68296C13.8734 7.68296 14.6869 8.01228 15.2952 8.60128C15.7602 8.15668 16.3455 7.85838 16.9785 7.74339C17.6115 7.6284 18.2644 7.70178 18.856 7.95442C19.4477 8.20707 19.9522 8.62786 20.3069 9.1646C20.6616 9.70134 20.8509 10.3304 20.8514 10.9738V20.7327C20.8501 21.0285 20.9414 21.3172 21.1123 21.5585C21.2832 21.7999 21.5252 21.9818 21.8046 22.0788C22.084 22.1758 22.3867 22.1831 22.6704 22.0996C22.9541 22.0162 23.2046 21.8461 23.3869 21.6133C23.1779 21.6345 22.9674 21.5903 22.7846 21.4868C22.6017 21.3834 22.4555 21.2257 22.366 21.0356C22.2766 20.8455 22.2483 20.6323 22.2851 20.4255C22.322 20.2186 22.4221 20.0283 22.5716 19.8808L23.9943 18.4581C24.089 18.3632 24.2014 18.2879 24.3253 18.2365C24.4491 18.1851 24.5818 18.1587 24.7158 18.1587C24.8499 18.1587 24.9826 18.1851 25.1064 18.2365C25.2302 18.2879 25.3427 18.3632 25.4374 18.4581L26.8764 19.8808C26.9713 19.9754 27.0466 20.0879 27.0979 20.2117C27.1493 20.3355 27.1758 20.4682 27.1758 20.6023C27.1758 20.7363 27.1493 20.8691 27.0979 20.9929C27.0466 21.1167 26.9713 21.2292 26.8764 21.3238Z" fill="url(#paint0_linear_4518_4309)"/>
<defs>
<linearGradient id="paint0_linear_4518_4309" x1="0.00042728" y1="15.6734" x2="32.0004" y2="15.6734" gradientUnits="userSpaceOnUse">
<stop stop-color="#F4EDFC"/>
<stop offset="1" stop-color="#FEF5F9"/>
</linearGradient>
</defs>
</svg>
