<svg width="32" height="32" viewBox="0 0 32 32" fill="none" xmlns="http://www.w3.org/2000/svg">
<path d="M16 23.9695C16.8418 23.9695 17.6648 23.72 18.365 23.2527C19.0651 22.7853 19.6112 22.121 19.934 21.3435C20.2569 20.5661 20.3422 19.7104 20.1792 18.8845C20.0161 18.0586 19.612 17.2996 19.0179 16.7032C18.4238 16.1068 17.6663 15.6998 16.841 15.5336C16.0158 15.3674 15.1598 15.4494 14.3811 15.7693C13.6024 16.0893 12.936 16.6327 12.466 17.3311C11.9959 18.0295 11.7434 18.8515 11.7401 19.6933C11.7385 20.2539 11.8475 20.8094 12.0608 21.3279C12.2741 21.8463 12.5876 22.3176 12.9833 22.7148C13.3789 23.112 13.849 23.4273 14.3667 23.6426C14.8844 23.8579 15.4394 23.9689 16 23.9695Z" fill="url(#paint0_linear_4518_9384)"/>
<path d="M16 32C19.1645 32 22.2579 31.0616 24.8891 29.3035C27.5203 27.5454 29.5711 25.0466 30.7821 22.1229C31.9931 19.1993 32.3099 15.9823 31.6926 12.8786C31.0752 9.77486 29.5513 6.92394 27.3137 4.6863C25.0761 2.44866 22.2251 0.924806 19.1214 0.307443C16.0177 -0.309921 12.8007 0.00693238 9.87706 1.21793C6.95345 2.42894 4.45459 4.4797 2.69649 7.11088C0.938384 9.74207 0 12.8355 0 16C0 20.2435 1.68571 24.3131 4.68629 27.3137C7.68687 30.3143 11.7565 32 16 32ZM9.70191 9.13529C9.70191 8.86501 9.80928 8.60579 10.0004 8.41467C10.1915 8.22355 10.4507 8.11618 10.721 8.11618C10.9913 8.11618 11.2505 8.22355 11.4416 8.41467C11.6328 8.60579 11.7401 8.86501 11.7401 9.13529C11.7401 10.2651 12.1889 11.3486 12.9878 12.1475C13.7867 12.9464 14.8702 13.3952 16 13.3952C17.1298 13.3952 18.2133 12.9464 19.0122 12.1475C19.8111 11.3486 20.2599 10.2651 20.2599 9.13529C20.2599 8.86501 20.3672 8.60579 20.5584 8.41467C20.7495 8.22355 21.0087 8.11618 21.279 8.11618C21.5493 8.11618 21.8085 8.22355 21.9996 8.41467C22.1907 8.60579 22.2981 8.86501 22.2981 9.13529C22.3007 10.1885 22.039 11.2256 21.5369 12.1514C21.0348 13.0773 20.3084 13.8623 19.4242 14.4347C20.5646 15.1734 21.4356 16.2612 21.907 17.5357C22.3783 18.8101 22.4249 20.2028 22.0397 21.5059C21.6546 22.809 20.8583 23.9525 19.7697 24.7659C18.6812 25.5792 17.3588 26.0186 16 26.0186C14.6412 26.0186 13.3188 25.5792 12.2303 24.7659C11.1417 23.9525 10.3454 22.809 9.96025 21.5059C9.57507 20.2028 9.62164 18.8101 10.093 17.5357C10.5644 16.2612 11.4354 15.1734 12.5758 14.4347C11.6916 13.8623 10.9652 13.0773 10.4631 12.1514C9.96102 11.2256 9.69929 10.1885 9.70191 9.13529Z" fill="url(#paint1_linear_4518_9384)"/>
<defs>
<linearGradient id="paint0_linear_4518_9384" x1="3.35369e-08" y1="15.6734" x2="32" y2="15.6734" gradientUnits="userSpaceOnUse">
<stop stop-color="#F4EDFC"/>
<stop offset="1" stop-color="#FEF5F9"/>
</linearGradient>
<linearGradient id="paint1_linear_4518_9384" x1="3.35369e-08" y1="15.6734" x2="32" y2="15.6734" gradientUnits="userSpaceOnUse">
<stop stop-color="#F4EDFC"/>
<stop offset="1" stop-color="#FEF5F9"/>
</linearGradient>
</defs>
</svg>
