<svg width="32" height="32" viewBox="0 0 32 32" fill="none" xmlns="http://www.w3.org/2000/svg">
<path d="M24.6749 14.3531C24.679 14.0028 24.5876 13.6579 24.4104 13.3557C24.2333 13.0534 23.9772 12.8051 23.6695 12.6374C23.3619 12.4698 23.0144 12.3891 22.6643 12.4041C22.3143 12.4191 21.975 12.5292 21.6828 12.7225V18.1483L24.1286 15.7024C24.4808 15.3418 24.677 14.8571 24.6749 14.3531Z" fill="url(#paint0_linear_4518_8270)"/>
<path d="M16 0C12.8355 0 9.74207 0.938384 7.11088 2.69649C4.4797 4.45459 2.42894 6.95344 1.21793 9.87706C0.00693235 12.8007 -0.309921 16.0177 0.307443 19.1214C0.924806 22.2251 2.44866 25.0761 4.6863 27.3137C6.92394 29.5513 9.77486 31.0752 12.8786 31.6926C15.9823 32.3099 19.1993 31.9931 22.1229 30.7821C25.0466 29.5711 27.5454 27.5203 29.3035 24.8891C31.0616 22.2579 32 19.1645 32 16C32 11.7565 30.3143 7.68687 27.3137 4.68629C24.3131 1.68571 20.2435 0 16 0ZM22.9952 22.4897C23.1689 22.4918 23.3413 22.4595 23.5025 22.3945C23.6636 22.3295 23.8103 22.2331 23.9339 22.111C24.0575 21.9889 24.1556 21.8435 24.2226 21.6832C24.2896 21.5229 24.3241 21.3508 24.3241 21.1771C24.3241 20.9068 24.4314 20.6476 24.6226 20.4564C24.8137 20.2653 25.0729 20.158 25.3432 20.158C25.6135 20.158 25.8727 20.2653 26.0638 20.4564C26.2549 20.6476 26.3623 20.9068 26.3623 21.1771C26.3634 21.9296 26.1109 22.6606 25.6455 23.2519C25.18 23.8433 24.5289 24.2605 23.7971 24.4363C23.0654 24.612 22.2958 24.536 21.6126 24.2205C20.9293 23.9051 20.3724 23.3685 20.0316 22.6976L18.4989 24.2303C18.3075 24.4217 18.048 24.5292 17.7773 24.5292C17.5067 24.5292 17.2472 24.4217 17.0558 24.2303C16.8644 24.039 16.7569 23.7794 16.7569 23.5088C16.7569 23.2382 16.8644 22.9786 17.0558 22.7873L19.6606 20.1824V12.3108C19.6606 12.2823 19.6606 12.2538 19.6606 12.2252V10.88C19.6606 10.5157 19.5159 10.1662 19.2583 9.9086C19.0006 9.65097 18.6512 9.50624 18.2869 9.50624C17.9225 9.50624 17.5731 9.65097 17.3155 9.9086C17.0579 10.1662 16.9131 10.5157 16.9131 10.88V17.5613C16.9131 17.8316 16.8058 18.0908 16.6146 18.2819C16.4235 18.473 16.1643 18.5804 15.894 18.5804C15.6237 18.5804 15.3645 18.473 15.1734 18.2819C14.9823 18.0908 14.8749 17.8316 14.8749 17.5613V10.8841C14.8749 10.5197 14.7302 10.1703 14.4725 9.91268C14.2149 9.65505 13.8655 9.51032 13.5012 9.51032C13.1368 9.51032 12.7874 9.65505 12.5298 9.91268C12.2721 10.1703 12.1274 10.5197 12.1274 10.8841V17.5613C12.1274 17.8316 12.02 18.0908 11.8289 18.2819C11.6378 18.473 11.3786 18.5804 11.1083 18.5804C10.838 18.5804 10.5788 18.473 10.3877 18.2819C10.1965 18.0908 10.0892 17.8316 10.0892 17.5613V10.8841C10.0892 10.5197 9.94444 10.1703 9.68681 9.91268C9.42918 9.65505 9.07976 9.51032 8.71542 9.51032C8.35108 9.51032 8.00165 9.65505 7.74402 9.91268C7.4864 10.1703 7.34166 10.5197 7.34166 10.8841C7.34166 11.1544 7.23429 11.4136 7.04317 11.6047C6.85205 11.7958 6.59284 11.9032 6.32255 11.9032C6.05227 11.9032 5.79305 11.7958 5.60193 11.6047C5.41082 11.4136 5.30345 11.1544 5.30345 10.8841C5.30075 10.2105 5.49751 9.55112 5.86893 8.98915C6.24034 8.42717 6.7698 7.98772 7.39056 7.72616C8.01133 7.4646 8.69563 7.39264 9.35722 7.51936C10.0188 7.64607 10.6281 7.96579 11.1083 8.43821C11.7455 7.80839 12.6052 7.45518 13.5012 7.45518C14.3971 7.45518 15.2568 7.80839 15.894 8.43821C16.3515 7.98538 16.9278 7.67135 17.5563 7.53248C18.1848 7.39361 18.8398 7.43558 19.4455 7.65353C20.0511 7.87148 20.5827 8.2565 20.9786 8.76401C21.3745 9.27153 21.6185 9.88079 21.6825 10.5213C22.5295 10.2818 23.432 10.3309 24.2479 10.6607C25.0639 10.9905 25.747 11.5824 26.1897 12.343C26.6324 13.1037 26.8095 13.99 26.6931 14.8624C26.5768 15.7348 26.1736 16.5437 25.547 17.1618L21.6825 21.0262V21.173C21.682 21.3457 21.7156 21.5168 21.7813 21.6766C21.847 21.8363 21.9436 21.9815 22.0656 22.1038C22.1875 22.2261 22.3324 22.3232 22.4919 22.3894C22.6514 22.4556 22.8224 22.4897 22.9952 22.4897Z" fill="url(#paint1_linear_4518_8270)"/>
<defs>
<linearGradient id="paint0_linear_4518_8270" x1="3.35369e-08" y1="15.6734" x2="32" y2="15.6734" gradientUnits="userSpaceOnUse">
<stop stop-color="#F4EDFC"/>
<stop offset="1" stop-color="#FEF5F9"/>
</linearGradient>
<linearGradient id="paint1_linear_4518_8270" x1="3.35369e-08" y1="15.6734" x2="32" y2="15.6734" gradientUnits="userSpaceOnUse">
<stop stop-color="#F4EDFC"/>
<stop offset="1" stop-color="#FEF5F9"/>
</linearGradient>
</defs>
</svg>
