<svg width="221" height="77" viewBox="0 0 221 77" fill="none" xmlns="http://www.w3.org/2000/svg">
<path d="M110.779 0.00727402C101.006 0.902482 91.9203 5.38679 85.3028 12.5822C78.6853 19.7777 75.0121 29.166 75.0025 38.9087C75.0265 46.3884 77.2111 53.7047 81.2973 59.9893C83.1963 59.4746 85.1515 58.9246 87.3799 58.1485C96.3057 55.0402 106.434 50.1513 116.275 44.5243C116.275 44.5118 116.275 44.4994 116.275 44.487C116.275 41.5238 117.461 38.6818 119.572 36.5865C121.683 34.4912 124.546 33.3141 127.532 33.3141C129.217 33.3188 130.88 33.6995 132.398 34.4275C138.899 29.952 144.668 25.3902 149.385 21.0283C145.707 13.9213 139.925 8.10303 132.815 4.35623C132.209 6.77439 130.806 8.92215 128.829 10.4578C126.852 11.9934 124.414 12.8289 121.904 12.8314C118.918 12.8314 116.055 11.6543 113.944 9.55897C111.833 7.46364 110.647 4.62171 110.647 1.65848C110.65 1.1032 110.693 0.548803 110.779 0L110.779 0.00727402ZM97.515 18.4251C98.5101 18.4251 99.4645 18.8177 100.168 19.5162C100.872 20.2146 101.267 21.1616 101.267 22.1494C101.267 23.1371 100.872 24.0846 100.168 24.783C99.4645 25.4815 98.5101 25.8737 97.515 25.8737C96.5199 25.8737 95.5655 25.4815 94.8619 24.783C94.1582 24.0846 93.7629 23.1371 93.7629 22.1494C93.7629 21.1616 94.1582 20.2146 94.8619 19.5162C95.5655 18.8177 96.5199 18.4251 97.515 18.4251ZM153.24 32.6676C148.885 36.4213 143.988 40.1615 138.759 43.79C138.779 44.0247 138.791 44.2597 138.796 44.4952C138.796 47.4584 137.61 50.3003 135.499 52.3957C133.388 54.491 130.525 55.6681 127.54 55.6681C125.632 55.6664 123.756 55.1836 122.088 54.2646C111.646 60.222 100.828 65.3642 90.9057 68.8199C90.4626 68.9764 90.0577 69.0954 89.6232 69.2414C94.1412 72.878 99.4144 75.4763 105.064 76.85C105.044 76.6177 105.032 76.3848 105.027 76.1517C105.027 73.1885 106.213 70.3465 108.324 68.2512C110.435 66.1559 113.298 64.9788 116.283 64.9788C119.195 64.9826 121.992 66.106 124.086 68.1134C126.181 70.1209 127.411 72.8561 127.517 75.7443C135.196 73.0531 141.845 68.0664 146.551 61.47C151.257 54.8736 153.788 46.9915 153.796 38.9087C153.779 36.8169 153.593 34.7299 153.24 32.6676Z" fill="url(#paint0_linear_2393_399)"/>
<path d="M142.48 3.80122C142.104 4.05295 141.83 4.43326 141.707 4.87186C141.584 5.31046 141.621 5.77748 141.812 6.18709C142.002 6.5967 142.333 6.92096 142.744 7.09998C143.154 7.27901 143.615 7.30057 144.043 7.1609C149.678 5.40117 154.228 4.54785 157.513 4.46815C160.799 4.38994 162.636 5.14253 163.283 5.9075C163.93 6.6721 164.107 7.89444 163.013 10.3715C161.919 12.8485 159.525 16.1954 155.758 20.12C140.69 35.8183 109.502 54.8917 86.4965 62.3961C80.7452 64.2724 76.0458 65.2479 72.5788 65.4412C69.1123 65.6349 67.0047 64.9571 66.2141 64.2056C65.8198 63.8294 65.6341 63.4697 65.5748 62.838C65.5148 62.2068 65.6423 61.2876 66.0967 60.1167C67.0047 57.7741 69.2008 54.5116 72.7946 50.6495C72.9648 50.4689 73.0986 50.2563 73.188 50.024C73.2775 49.7916 73.321 49.5437 73.3159 49.2952C73.3109 49.0467 73.2574 48.802 73.1586 48.5755C73.0598 48.349 72.9176 48.1451 72.7402 47.9754C72.5628 47.8057 72.3537 47.674 72.1249 47.5872C71.8962 47.5004 71.6523 47.4605 71.4074 47.4699C71.1624 47.4793 70.9212 47.5376 70.6976 47.6417C70.474 47.7459 70.2725 47.8939 70.1047 48.0768C66.32 52.1441 63.8526 55.6511 62.644 58.7687C62.0399 60.3273 61.745 61.8123 61.8809 63.2354C62.0159 64.6588 62.6463 66.0039 63.6601 66.9674C65.6877 68.8947 68.7862 69.4228 72.7443 69.2024C76.7024 68.9826 81.6461 67.9232 87.5988 65.9813C111.408 58.2143 142.606 39.1963 158.407 22.7346C162.357 18.6189 164.997 15.043 166.393 11.8799C167.79 8.71688 167.915 5.58034 166.112 3.44297C164.306 1.3056 161.288 0.611113 157.465 0.703848C153.642 0.796956 148.829 1.73871 142.983 3.56436C142.805 3.61703 142.637 3.69652 142.482 3.7994L142.48 3.80122Z" fill="url(#paint1_linear_2393_399)"/>
<path d="M37.3 5L37.7 7.6L6.5 47.6L7.9 44.2H39.7C42.4333 44.2 44.1667 43.8667 44.9 43.2C45.6333 42.5333 46.1333 41.3667 46.4 39.7H48.5C48.5 43.7 48.5333 46.8333 48.6 49.1C48.6667 51.3 48.7667 53.2667 48.9 55C48.3 54.8667 47 54.7667 45 54.7C43 54.6333 40.7667 54.6 38.3 54.6C35.8333 54.5333 33.6 54.5 31.6 54.5H0V52.4L37.3 5ZM38.9 5V72.2H27.3V19.1L37.3 5H38.9Z" fill="url(#paint2_linear_2393_399)"/>
<path d="M209.3 5L209.7 7.6L178.5 47.6L179.9 44.2H211.7C214.433 44.2 216.167 43.8667 216.9 43.2C217.633 42.5333 218.133 41.3667 218.4 39.7H220.5C220.5 43.7 220.533 46.8333 220.6 49.1C220.667 51.3 220.767 53.2667 220.9 55C220.3 54.8667 219 54.7667 217 54.7C215 54.6333 212.767 54.6 210.3 54.6C207.833 54.5333 205.6 54.5 203.6 54.5H172V52.4L209.3 5ZM210.9 5V72.2H199.3V19.1L209.3 5H210.9Z" fill="url(#paint3_linear_2393_399)"/>
<defs>
<linearGradient id="paint0_linear_2393_399" x1="179.334" y1="18.9529" x2="144.781" y2="108.613" gradientUnits="userSpaceOnUse">
<stop stop-color="#C19EED"/>
<stop offset="1" stop-color="#FCBFCF"/>
</linearGradient>
<linearGradient id="paint1_linear_2393_399" x1="179.334" y1="18.9529" x2="144.781" y2="108.613" gradientUnits="userSpaceOnUse">
<stop stop-color="#C19EED"/>
<stop offset="1" stop-color="#FCBFCF"/>
</linearGradient>
<linearGradient id="paint2_linear_2393_399" x1="179.334" y1="18.9529" x2="144.781" y2="108.613" gradientUnits="userSpaceOnUse">
<stop stop-color="#C19EED"/>
<stop offset="1" stop-color="#FCBFCF"/>
</linearGradient>
<linearGradient id="paint3_linear_2393_399" x1="179.334" y1="18.9529" x2="144.781" y2="108.613" gradientUnits="userSpaceOnUse">
<stop stop-color="#C19EED"/>
<stop offset="1" stop-color="#FCBFCF"/>
</linearGradient>
</defs>
</svg>
