<svg width="51" height="50" viewBox="0 0 51 50" fill="none" xmlns="http://www.w3.org/2000/svg">
<path d="M42.7061 38.0601H8.29443C7.21572 38.0601 6.34131 37.1856 6.34131 36.1069V14.4849C6.34131 13.4062 7.21572 12.5317 8.29443 12.5317H42.7061C43.7848 12.5317 44.6592 13.4062 44.6592 14.4849V36.1069C44.6592 37.1856 43.7848 38.0601 42.7061 38.0601Z" fill="url(#paint0_linear_3351_7768)"/>
<path d="M26.0952 21.8467L44.6593 36.1069C44.6593 37.1856 43.7849 38.0601 42.7061 38.0601H8.29443C7.21572 38.0601 6.34131 37.1856 6.34131 36.1069L24.9054 21.8467C25.2562 21.5771 25.7443 21.5771 26.0952 21.8467Z" fill="url(#paint1_linear_3351_7768)"/>
<path d="M24.9054 28.7452L6.34131 14.4849C6.34131 13.4062 7.21572 12.5317 8.29443 12.5317H42.7061C43.7848 12.5317 44.6592 13.4062 44.6592 14.4849L26.0952 28.7452C25.7443 29.0147 25.2563 29.0147 24.9054 28.7452Z" fill="url(#paint2_linear_3351_7768)"/>
<path d="M36.7255 35.4613H33.5874C33.3177 35.4613 33.0991 35.2428 33.0991 34.973V32.8096C33.0991 32.5399 33.3177 32.3213 33.5874 32.3213H36.7255C36.9952 32.3213 37.2138 32.5399 37.2138 32.8096V34.973C37.2138 35.2428 36.9952 35.4613 36.7255 35.4613Z" fill="url(#paint3_linear_3351_7768)"/>
<path d="M30.9564 33.4709H28.2383C27.9686 33.4709 27.75 33.2523 27.75 32.9827C27.75 32.713 27.9686 32.4944 28.2383 32.4944H30.9564C31.2261 32.4944 31.4446 32.713 31.4446 32.9827C31.4446 33.2523 31.2261 33.4709 30.9564 33.4709Z" fill="url(#paint4_linear_3351_7768)"/>
<path d="M30.9564 35.4614H21.4023C21.1326 35.4614 20.9141 35.2428 20.9141 34.9731C20.9141 34.7035 21.1326 34.4849 21.4023 34.4849H30.9564C31.2261 34.4849 31.4446 34.7035 31.4446 34.9731C31.4446 35.2429 31.2261 35.4614 30.9564 35.4614Z" fill="url(#paint5_linear_3351_7768)"/>
<path d="M46.9675 16.1175C47.5847 12.3104 44.9987 8.72391 41.1917 8.10676C37.3846 7.4896 33.7981 10.0755 33.1809 13.8826C32.5638 17.6896 35.1497 21.2762 38.9568 21.8933C42.7638 22.5105 46.3504 19.9246 46.9675 16.1175Z" fill="url(#paint6_linear_3351_7768)"/>
<path d="M40.0833 22.4716C44.2035 22.4716 47.5557 19.1195 47.5557 14.9992C47.5557 10.8789 44.2036 7.52686 40.0833 7.52686C35.963 7.52686 32.6109 10.8789 32.6109 14.9992C32.6109 17.3961 33.7466 19.5314 35.5067 20.8997L25.7978 28.3579C25.6228 28.4925 25.3781 28.4926 25.2028 28.3579L6.84717 14.2577C6.95664 13.5575 7.56406 13.02 8.29443 13.02H30.6935C30.9632 13.02 31.1817 12.8014 31.1817 12.5317C31.1817 12.2621 30.9632 12.0435 30.6935 12.0435H8.29443C6.94824 12.0435 5.85303 13.1387 5.85303 14.4849V36.1069C5.85303 37.4531 6.94824 38.5483 8.29443 38.5483H42.7061C44.0522 38.5483 45.1475 37.4531 45.1475 36.1069V23.2026C45.1475 22.933 44.9289 22.7144 44.6592 22.7144C44.3894 22.7144 44.1709 22.933 44.1709 23.2026V35.1161L31.387 25.2959L36.3616 21.4746C37.4583 22.1074 38.7287 22.4716 40.0833 22.4716ZM19.6136 25.2959L6.82959 35.1161V15.4757L19.6136 25.2959ZM44.1517 36.3328C44.0425 37.0334 43.4368 37.5718 42.7061 37.5718H8.29443C7.56367 37.5718 6.95801 37.0334 6.84883 36.3328L20.4151 25.9116L24.6079 29.1323C24.8706 29.3341 25.1854 29.4351 25.5003 29.4351C25.8151 29.4351 26.1299 29.3342 26.3927 29.1323L30.5854 25.9115L44.1517 36.3328ZM33.5875 14.9992C33.5875 11.4175 36.5015 8.50342 40.0833 8.50342C43.6651 8.50342 46.5791 11.4174 46.5791 14.9992C46.5791 18.581 43.6651 21.495 40.0833 21.495C36.5015 21.495 33.5875 18.581 33.5875 14.9992Z" fill="url(#paint7_linear_3351_7768)"/>
<path d="M36.3072 14.6656L38.3612 16.2299L38.6889 18.7909C38.7446 19.2258 39.3008 19.3727 39.5639 19.0219L43.4901 13.7872C43.748 13.4434 43.4679 12.9581 43.0411 13.0095L36.5447 13.7924C36.1093 13.8448 35.9584 14.3999 36.3072 14.6656Z" fill="url(#paint8_linear_3351_7768)"/>
<defs>
<linearGradient id="paint0_linear_3351_7768" x1="6.34131" y1="25.0354" x2="44.6592" y2="25.0354" gradientUnits="userSpaceOnUse">
<stop stop-color="#F4EDFC"/>
<stop offset="1" stop-color="#FEF5F9"/>
</linearGradient>
<linearGradient id="paint1_linear_3351_7768" x1="6.34131" y1="29.6848" x2="44.6593" y2="29.6848" gradientUnits="userSpaceOnUse">
<stop stop-color="#F4EDFC"/>
<stop offset="1" stop-color="#FEF5F9"/>
</linearGradient>
<linearGradient id="paint2_linear_3351_7768" x1="6.34131" y1="20.572" x2="44.6592" y2="20.572" gradientUnits="userSpaceOnUse">
<stop stop-color="#F4EDFC"/>
<stop offset="1" stop-color="#FEF5F9"/>
</linearGradient>
<linearGradient id="paint3_linear_3351_7768" x1="33.0991" y1="33.8593" x2="37.2138" y2="33.8593" gradientUnits="userSpaceOnUse">
<stop stop-color="#630CD2"/>
<stop offset="1" stop-color="#F95F86"/>
</linearGradient>
<linearGradient id="paint4_linear_3351_7768" x1="27.75" y1="32.9727" x2="31.4446" y2="32.9727" gradientUnits="userSpaceOnUse">
<stop stop-color="#630CD2"/>
<stop offset="1" stop-color="#F95F86"/>
</linearGradient>
<linearGradient id="paint5_linear_3351_7768" x1="20.9141" y1="34.9632" x2="31.4446" y2="34.9632" gradientUnits="userSpaceOnUse">
<stop stop-color="#630CD2"/>
<stop offset="1" stop-color="#F95F86"/>
</linearGradient>
<linearGradient id="paint6_linear_3351_7768" x1="37.2779" y1="10.1346" x2="44.0833" y2="20.6679" gradientUnits="userSpaceOnUse">
<stop stop-color="#C19EED"/>
<stop offset="1" stop-color="#FCBFCF"/>
</linearGradient>
<linearGradient id="paint7_linear_3351_7768" x1="5.85303" y1="22.721" x2="47.5557" y2="22.721" gradientUnits="userSpaceOnUse">
<stop stop-color="#630CD2"/>
<stop offset="1" stop-color="#F95F86"/>
</linearGradient>
<linearGradient id="paint8_linear_3351_7768" x1="37.4328" y1="16.6938" x2="43.4911" y2="13.196" gradientUnits="userSpaceOnUse">
<stop stop-color="#630CD2"/>
<stop offset="1" stop-color="#F95F86"/>
</linearGradient>
</defs>
</svg>
