<svg width="51" height="50" viewBox="0 0 51 50" fill="none" xmlns="http://www.w3.org/2000/svg">
<path d="M42.8245 40.8018H7.0243C6.28091 40.8018 5.67822 40.1991 5.67822 39.4557V11.254C5.67822 10.5106 6.28091 9.90796 7.0243 9.90796H42.8245C43.5679 9.90796 44.1706 10.5106 44.1706 11.254V39.4557C44.1706 40.1991 43.568 40.8018 42.8245 40.8018Z" fill="url(#paint0_linear_3351_7781)"/>
<path d="M5.67822 21.053H44.1706V38.4712H5.67822V21.053Z" fill="url(#paint1_linear_3351_7781)"/>
<path d="M10.9914 24.0259H8.64205C8.39428 24.0259 8.19336 24.2268 8.19336 24.4746C8.19336 24.7223 8.39428 24.9233 8.64205 24.9233H10.9915C11.2393 24.9233 11.4402 24.7223 11.4402 24.4746C11.4401 24.2267 11.2393 24.0259 10.9914 24.0259Z" fill="url(#paint2_linear_3351_7781)"/>
<path d="M14.222 25.8643H8.64205C8.39428 25.8643 8.19336 26.0652 8.19336 26.313C8.19336 26.5607 8.39428 26.7616 8.64205 26.7616H14.2221C14.4698 26.7616 14.6708 26.5607 14.6708 26.313C14.6707 26.0652 14.4698 25.8643 14.222 25.8643Z" fill="url(#paint3_linear_3351_7781)"/>
<path d="M14.222 27.7026H8.64205C8.39428 27.7026 8.19336 27.9036 8.19336 28.1513C8.19336 28.3991 8.39428 28.6 8.64205 28.6H14.2221C14.4698 28.6 14.6708 28.3991 14.6708 28.1513C14.6707 27.9036 14.4698 27.7026 14.222 27.7026Z" fill="url(#paint4_linear_3351_7781)"/>
<path d="M14.222 31.0352H8.64205C8.39428 31.0352 8.19336 31.2361 8.19336 31.4839C8.19336 31.7316 8.39428 31.9325 8.64205 31.9325H14.2221C14.4698 31.9325 14.6708 31.7316 14.6708 31.4839C14.6707 31.2361 14.4698 31.0352 14.222 31.0352Z" fill="url(#paint5_linear_3351_7781)"/>
<path d="M14.222 32.8738H8.64205C8.39428 32.8738 8.19336 33.0747 8.19336 33.3225C8.19336 33.5702 8.39428 33.7712 8.64205 33.7712H14.2221C14.4698 33.7712 14.6708 33.5702 14.6708 33.3225C14.6707 33.0747 14.4698 32.8738 14.222 32.8738Z" fill="url(#paint6_linear_3351_7781)"/>
<path d="M14.222 34.7122H8.64205C8.39428 34.7122 8.19336 34.9131 8.19336 35.1609C8.19336 35.4086 8.39428 35.6095 8.64205 35.6095H14.2221C14.4698 35.6095 14.6708 35.4086 14.6708 35.1609C14.6707 34.913 14.4698 34.7122 14.222 34.7122Z" fill="url(#paint7_linear_3351_7781)"/>
<path d="M37.9761 24.0259H35.6267C35.3789 24.0259 35.178 24.2268 35.178 24.4746C35.178 24.7223 35.3789 24.9233 35.6267 24.9233H37.9761C38.2239 24.9233 38.4248 24.7223 38.4248 24.4746C38.4248 24.2267 38.2239 24.0259 37.9761 24.0259Z" fill="url(#paint8_linear_3351_7781)"/>
<path d="M41.2067 25.8643H35.6267C35.3789 25.8643 35.178 26.0652 35.178 26.313C35.178 26.5607 35.3789 26.7616 35.6267 26.7616H41.2067C41.4545 26.7616 41.6554 26.5607 41.6554 26.313C41.6554 26.0652 41.4545 25.8643 41.2067 25.8643Z" fill="url(#paint9_linear_3351_7781)"/>
<path d="M41.2067 27.7026H35.6267C35.3789 27.7026 35.178 27.9036 35.178 28.1513C35.178 28.3991 35.3789 28.6 35.6267 28.6H41.2067C41.4545 28.6 41.6554 28.3991 41.6554 28.1513C41.6554 27.9036 41.4545 27.7026 41.2067 27.7026Z" fill="url(#paint10_linear_3351_7781)"/>
<path d="M41.2067 31.0352H35.6267C35.3789 31.0352 35.178 31.2361 35.178 31.4839C35.178 31.7316 35.3789 31.9325 35.6267 31.9325H41.2067C41.4545 31.9325 41.6554 31.7316 41.6554 31.4839C41.6554 31.2361 41.4545 31.0352 41.2067 31.0352Z" fill="url(#paint11_linear_3351_7781)"/>
<path d="M41.2067 32.8738H35.6267C35.3789 32.8738 35.178 33.0747 35.178 33.3225C35.178 33.5702 35.3789 33.7712 35.6267 33.7712H41.2067C41.4545 33.7712 41.6554 33.5702 41.6554 33.3225C41.6554 33.0747 41.4545 32.8738 41.2067 32.8738Z" fill="url(#paint12_linear_3351_7781)"/>
<path d="M41.2067 34.7122H35.6267C35.3789 34.7122 35.178 34.9131 35.178 35.1609C35.178 35.4086 35.3789 35.6095 35.6267 35.6095H41.2067C41.4545 35.6095 41.6554 35.4086 41.6554 35.1609C41.6554 34.913 41.4545 34.7122 41.2067 34.7122Z" fill="url(#paint13_linear_3351_7781)"/>
<path d="M36.035 20.2841V40.8019H13.814V20.2841C13.814 19.7887 14.216 19.3867 14.7113 19.3867H35.1376C35.6329 19.3867 36.035 19.7887 36.035 20.2841Z" fill="url(#paint14_linear_3351_7781)"/>
<path d="M30.7584 40.8018H13.814V27.3106C14.6575 27.1562 15.5271 27.0754 16.4155 27.0754C24.1339 27.0754 30.429 33.1651 30.7584 40.8018Z" fill="url(#paint15_linear_3351_7781)"/>
<path d="M36.0349 41.2505H13.8139C13.5662 41.2505 13.3652 41.0497 13.3652 40.8018V20.2841C13.3652 19.5418 13.9691 18.938 14.7113 18.938H35.1375C35.8798 18.938 36.4836 19.5418 36.4836 20.2841V40.8018C36.4836 41.0497 36.2827 41.2505 36.0349 41.2505ZM14.2626 40.3531H35.5862V20.2841C35.5862 20.0367 35.3849 19.8354 35.1375 19.8354H14.7113C14.4639 19.8354 14.2626 20.0367 14.2626 20.2841V40.3531Z" fill="url(#paint16_linear_3351_7781)"/>
<path d="M44.1706 16.128V11.254C44.1706 10.5106 43.5679 9.90796 42.8245 9.90796H7.0243C6.28091 9.90796 5.67822 10.5106 5.67822 11.254V16.128H44.1706Z" fill="url(#paint17_linear_3351_7781)"/>
<path d="M42.8245 41.2507H7.02426C6.03462 41.2507 5.22949 40.4456 5.22949 39.4559V11.2542C5.22949 10.2646 6.03462 9.45947 7.02426 9.45947H42.8245C43.8141 9.45947 44.6192 10.2646 44.6192 11.2542V39.4559C44.6192 40.4456 43.8141 41.2507 42.8245 41.2507ZM7.02426 10.3569C6.52944 10.3569 6.12688 10.7594 6.12688 11.2542V39.4559C6.12688 39.9508 6.52944 40.3533 7.02426 40.3533H42.8245C43.3193 40.3533 43.7219 39.9508 43.7219 39.4559V11.2542C43.7219 10.7594 43.3193 10.3569 42.8245 10.3569H7.02426Z" fill="url(#paint18_linear_3351_7781)"/>
<path d="M9.63497 14.1977C10.1752 14.1977 10.6132 13.7597 10.6132 13.2194C10.6132 12.6792 10.1752 12.2412 9.63497 12.2412C9.09471 12.2412 8.65674 12.6792 8.65674 13.2194C8.65674 13.7597 9.09471 14.1977 9.63497 14.1977Z" fill="url(#paint19_linear_3351_7781)"/>
<path d="M12.758 14.1977C13.2983 14.1977 13.7363 13.7597 13.7363 13.2195C13.7363 12.6792 13.2983 12.2412 12.758 12.2412C12.2178 12.2412 11.7798 12.6792 11.7798 13.2195C11.7798 13.7597 12.2178 14.1977 12.758 14.1977Z" fill="url(#paint20_linear_3351_7781)"/>
<path d="M15.8806 14.1977C16.4208 14.1977 16.8588 13.7597 16.8588 13.2195C16.8588 12.6792 16.4208 12.2412 15.8806 12.2412C15.3403 12.2412 14.9023 12.6792 14.9023 13.2195C14.9023 13.7597 15.3403 14.1977 15.8806 14.1977Z" fill="url(#paint21_linear_3351_7781)"/>
<path d="M40.743 14.3185H28.5244V12.1204H40.7431C40.9909 12.1204 41.1918 12.3213 41.1918 12.5691V13.8699C41.1917 14.1177 40.9909 14.3185 40.743 14.3185Z" fill="url(#paint22_linear_3351_7781)"/>
<path d="M23.2724 21.717H18.2309C17.9832 21.717 17.7822 21.918 17.7822 22.1657C17.7822 22.4135 17.9832 22.6144 18.2309 22.6144H23.2725C23.5203 22.6144 23.7212 22.4135 23.7212 22.1657C23.7211 21.918 23.5203 21.717 23.2724 21.717Z" fill="url(#paint23_linear_3351_7781)"/>
<path d="M31.6181 23.5557H18.2309C17.9832 23.5557 17.7822 23.7566 17.7822 24.0044C17.7822 24.2521 17.9832 24.453 18.2309 24.453H31.6181C31.8658 24.453 32.0668 24.2521 32.0668 24.0044C32.0668 23.7565 31.8659 23.5557 31.6181 23.5557Z" fill="url(#paint24_linear_3351_7781)"/>
<path d="M31.6181 25.3943H18.2309C17.9832 25.3943 17.7822 25.5952 17.7822 25.843C17.7822 26.0907 17.9832 26.2917 18.2309 26.2917H31.6181C31.8658 26.2917 32.0668 26.0907 32.0668 25.843C32.0668 25.5951 31.8659 25.3943 31.6181 25.3943Z" fill="url(#paint25_linear_3351_7781)"/>
<path d="M31.6181 28.7263H18.2309C17.9832 28.7263 17.7822 28.9272 17.7822 29.175C17.7822 29.4228 17.9832 29.6237 18.2309 29.6237H31.6181C31.8658 29.6237 32.0668 29.4228 32.0668 29.175C32.0668 28.9272 31.8659 28.7263 31.6181 28.7263Z" fill="url(#paint26_linear_3351_7781)"/>
<path d="M31.6181 30.5649H18.2309C17.9832 30.5649 17.7822 30.7659 17.7822 31.0136C17.7822 31.2614 17.9832 31.4623 18.2309 31.4623H31.6181C31.8658 31.4623 32.0668 31.2614 32.0668 31.0136C32.0668 30.7659 31.8659 30.5649 31.6181 30.5649Z" fill="url(#paint27_linear_3351_7781)"/>
<path d="M31.6181 32.4036H18.2309C17.9832 32.4036 17.7822 32.6045 17.7822 32.8523C17.7822 33.1 17.9832 33.3009 18.2309 33.3009H31.6181C31.8658 33.3009 32.0668 33.1 32.0668 32.8523C32.0668 32.6045 31.8659 32.4036 31.6181 32.4036Z" fill="url(#paint28_linear_3351_7781)"/>
<path d="M31.6181 35.7358H18.2309C17.9832 35.7358 17.7822 35.9368 17.7822 36.1845C17.7822 36.4323 17.9832 36.6332 18.2309 36.6332H31.6181C31.8658 36.6332 32.0668 36.4323 32.0668 36.1845C32.0668 35.9368 31.8659 35.7358 31.6181 35.7358Z" fill="url(#paint29_linear_3351_7781)"/>
<path d="M31.6181 37.5745H18.2309C17.9832 37.5745 17.7822 37.7754 17.7822 38.0232C17.7822 38.2709 17.9832 38.4718 18.2309 38.4718H31.6181C31.8658 38.4718 32.0668 38.2709 32.0668 38.0232C32.0668 37.7754 31.8659 37.5745 31.6181 37.5745Z" fill="url(#paint30_linear_3351_7781)"/>
<path d="M38.6856 20.6476C39.004 19.2816 38.1547 17.9162 36.7888 17.5978C35.4228 17.2795 34.0574 18.1287 33.739 19.4947C33.4207 20.8607 34.2699 22.2261 35.6359 22.5444C37.0019 22.8628 38.3673 22.0135 38.6856 20.6476Z" fill="url(#paint31_linear_3351_7781)"/>
<path d="M36.2103 23.0629C34.5627 23.0629 33.2224 21.7225 33.2224 20.0749C33.2224 18.4273 34.5627 17.0869 36.2103 17.0869C37.8579 17.0869 39.1984 18.4273 39.1984 20.0749C39.1984 21.7225 37.8579 23.0629 36.2103 23.0629ZM36.2103 17.9843C35.0576 17.9843 34.1198 18.9222 34.1198 20.0749C34.1198 21.2277 35.0577 22.1656 36.2103 22.1656C37.3631 22.1656 38.301 21.2277 38.301 20.0749C38.301 18.9222 37.3631 17.9843 36.2103 17.9843Z" fill="url(#paint32_linear_3351_7781)"/>
<path d="M35.7603 21.4245C35.6259 21.4245 35.4929 21.3643 35.4045 21.2496C35.2533 21.0532 35.29 20.7715 35.4863 20.6203L36.195 20.0747L35.4863 19.5291C35.29 19.3778 35.2533 19.0962 35.4045 18.8997C35.5556 18.7035 35.8375 18.6669 36.0337 18.818L37.2042 19.7191C37.3145 19.804 37.3792 19.9354 37.3792 20.0747C37.3792 20.2139 37.3146 20.3453 37.2042 20.4302L36.0337 21.3314C35.9521 21.3941 35.8558 21.4245 35.7603 21.4245Z" fill="url(#paint33_linear_3351_7781)"/>
<defs>
<linearGradient id="paint0_linear_3351_7781" x1="5.67822" y1="25.0396" x2="44.1706" y2="25.0396" gradientUnits="userSpaceOnUse">
<stop stop-color="#F4EDFC"/>
<stop offset="1" stop-color="#FEF5F9"/>
</linearGradient>
<linearGradient id="paint1_linear_3351_7781" x1="5.67822" y1="29.5843" x2="44.1706" y2="29.5843" gradientUnits="userSpaceOnUse">
<stop stop-color="#F4EDFC"/>
<stop offset="1" stop-color="#FEF5F9"/>
</linearGradient>
<linearGradient id="paint2_linear_3351_7781" x1="8.19336" y1="24.4654" x2="11.4402" y2="24.4654" gradientUnits="userSpaceOnUse">
<stop stop-color="#630CD2"/>
<stop offset="1" stop-color="#F95F86"/>
</linearGradient>
<linearGradient id="paint3_linear_3351_7781" x1="8.19336" y1="26.3038" x2="14.6708" y2="26.3038" gradientUnits="userSpaceOnUse">
<stop stop-color="#630CD2"/>
<stop offset="1" stop-color="#F95F86"/>
</linearGradient>
<linearGradient id="paint4_linear_3351_7781" x1="8.19336" y1="28.1422" x2="14.6708" y2="28.1422" gradientUnits="userSpaceOnUse">
<stop stop-color="#630CD2"/>
<stop offset="1" stop-color="#F95F86"/>
</linearGradient>
<linearGradient id="paint5_linear_3351_7781" x1="8.19336" y1="31.4747" x2="14.6708" y2="31.4747" gradientUnits="userSpaceOnUse">
<stop stop-color="#630CD2"/>
<stop offset="1" stop-color="#F95F86"/>
</linearGradient>
<linearGradient id="paint6_linear_3351_7781" x1="8.19336" y1="33.3133" x2="14.6708" y2="33.3133" gradientUnits="userSpaceOnUse">
<stop stop-color="#630CD2"/>
<stop offset="1" stop-color="#F95F86"/>
</linearGradient>
<linearGradient id="paint7_linear_3351_7781" x1="8.19336" y1="35.1517" x2="14.6708" y2="35.1517" gradientUnits="userSpaceOnUse">
<stop stop-color="#630CD2"/>
<stop offset="1" stop-color="#F95F86"/>
</linearGradient>
<linearGradient id="paint8_linear_3351_7781" x1="35.178" y1="24.4654" x2="38.4248" y2="24.4654" gradientUnits="userSpaceOnUse">
<stop stop-color="#630CD2"/>
<stop offset="1" stop-color="#F95F86"/>
</linearGradient>
<linearGradient id="paint9_linear_3351_7781" x1="35.178" y1="26.3038" x2="41.6554" y2="26.3038" gradientUnits="userSpaceOnUse">
<stop stop-color="#630CD2"/>
<stop offset="1" stop-color="#F95F86"/>
</linearGradient>
<linearGradient id="paint10_linear_3351_7781" x1="35.178" y1="28.1422" x2="41.6554" y2="28.1422" gradientUnits="userSpaceOnUse">
<stop stop-color="#630CD2"/>
<stop offset="1" stop-color="#F95F86"/>
</linearGradient>
<linearGradient id="paint11_linear_3351_7781" x1="35.178" y1="31.4747" x2="41.6554" y2="31.4747" gradientUnits="userSpaceOnUse">
<stop stop-color="#630CD2"/>
<stop offset="1" stop-color="#F95F86"/>
</linearGradient>
<linearGradient id="paint12_linear_3351_7781" x1="35.178" y1="33.3133" x2="41.6554" y2="33.3133" gradientUnits="userSpaceOnUse">
<stop stop-color="#630CD2"/>
<stop offset="1" stop-color="#F95F86"/>
</linearGradient>
<linearGradient id="paint13_linear_3351_7781" x1="35.178" y1="35.1517" x2="41.6554" y2="35.1517" gradientUnits="userSpaceOnUse">
<stop stop-color="#630CD2"/>
<stop offset="1" stop-color="#F95F86"/>
</linearGradient>
<linearGradient id="paint14_linear_3351_7781" x1="13.814" y1="29.8758" x2="36.035" y2="29.8758" gradientUnits="userSpaceOnUse">
<stop stop-color="#F4EDFC"/>
<stop offset="1" stop-color="#FEF5F9"/>
</linearGradient>
<linearGradient id="paint15_linear_3351_7781" x1="13.814" y1="33.7986" x2="30.7584" y2="33.7986" gradientUnits="userSpaceOnUse">
<stop stop-color="#F4EDFC"/>
<stop offset="1" stop-color="#FEF5F9"/>
</linearGradient>
<linearGradient id="paint16_linear_3351_7781" x1="13.3652" y1="29.8666" x2="36.4836" y2="29.8666" gradientUnits="userSpaceOnUse">
<stop stop-color="#630CD2"/>
<stop offset="1" stop-color="#F95F86"/>
</linearGradient>
<linearGradient id="paint17_linear_3351_7781" x1="36.9276" y1="11.442" x2="35.482" y2="19.5178" gradientUnits="userSpaceOnUse">
<stop stop-color="#C19EED"/>
<stop offset="1" stop-color="#FCBFCF"/>
</linearGradient>
<linearGradient id="paint18_linear_3351_7781" x1="5.22949" y1="25.0307" x2="44.6192" y2="25.0307" gradientUnits="userSpaceOnUse">
<stop stop-color="#630CD2"/>
<stop offset="1" stop-color="#F95F86"/>
</linearGradient>
<linearGradient id="paint19_linear_3351_7781" x1="8.65674" y1="13.1995" x2="10.6132" y2="13.1995" gradientUnits="userSpaceOnUse">
<stop stop-color="#630CD2"/>
<stop offset="1" stop-color="#F95F86"/>
</linearGradient>
<linearGradient id="paint20_linear_3351_7781" x1="11.7798" y1="13.1995" x2="13.7363" y2="13.1995" gradientUnits="userSpaceOnUse">
<stop stop-color="#630CD2"/>
<stop offset="1" stop-color="#F95F86"/>
</linearGradient>
<linearGradient id="paint21_linear_3351_7781" x1="14.9023" y1="13.1995" x2="16.8588" y2="13.1995" gradientUnits="userSpaceOnUse">
<stop stop-color="#630CD2"/>
<stop offset="1" stop-color="#F95F86"/>
</linearGradient>
<linearGradient id="paint22_linear_3351_7781" x1="28.5244" y1="13.197" x2="41.1918" y2="13.197" gradientUnits="userSpaceOnUse">
<stop stop-color="#630CD2"/>
<stop offset="1" stop-color="#F95F86"/>
</linearGradient>
<linearGradient id="paint23_linear_3351_7781" x1="17.7822" y1="22.1566" x2="23.7212" y2="22.1566" gradientUnits="userSpaceOnUse">
<stop stop-color="#630CD2"/>
<stop offset="1" stop-color="#F95F86"/>
</linearGradient>
<linearGradient id="paint24_linear_3351_7781" x1="17.7822" y1="23.9952" x2="32.0668" y2="23.9952" gradientUnits="userSpaceOnUse">
<stop stop-color="#630CD2"/>
<stop offset="1" stop-color="#F95F86"/>
</linearGradient>
<linearGradient id="paint25_linear_3351_7781" x1="17.7822" y1="25.8338" x2="32.0668" y2="25.8338" gradientUnits="userSpaceOnUse">
<stop stop-color="#630CD2"/>
<stop offset="1" stop-color="#F95F86"/>
</linearGradient>
<linearGradient id="paint26_linear_3351_7781" x1="17.7822" y1="29.1659" x2="32.0668" y2="29.1659" gradientUnits="userSpaceOnUse">
<stop stop-color="#630CD2"/>
<stop offset="1" stop-color="#F95F86"/>
</linearGradient>
<linearGradient id="paint27_linear_3351_7781" x1="17.7822" y1="31.0045" x2="32.0668" y2="31.0045" gradientUnits="userSpaceOnUse">
<stop stop-color="#630CD2"/>
<stop offset="1" stop-color="#F95F86"/>
</linearGradient>
<linearGradient id="paint28_linear_3351_7781" x1="17.7822" y1="32.8431" x2="32.0668" y2="32.8431" gradientUnits="userSpaceOnUse">
<stop stop-color="#630CD2"/>
<stop offset="1" stop-color="#F95F86"/>
</linearGradient>
<linearGradient id="paint29_linear_3351_7781" x1="17.7822" y1="36.1754" x2="32.0668" y2="36.1754" gradientUnits="userSpaceOnUse">
<stop stop-color="#630CD2"/>
<stop offset="1" stop-color="#F95F86"/>
</linearGradient>
<linearGradient id="paint30_linear_3351_7781" x1="17.7822" y1="38.014" x2="32.0668" y2="38.014" gradientUnits="userSpaceOnUse">
<stop stop-color="#630CD2"/>
<stop offset="1" stop-color="#F95F86"/>
</linearGradient>
<linearGradient id="paint31_linear_3351_7781" x1="35.5854" y1="22.5327" x2="36.7383" y2="17.5861" gradientUnits="userSpaceOnUse">
<stop stop-color="#F4EDFC"/>
<stop offset="1" stop-color="#FEF5F9"/>
</linearGradient>
<linearGradient id="paint32_linear_3351_7781" x1="33.2224" y1="20.0139" x2="39.1984" y2="20.0139" gradientUnits="userSpaceOnUse">
<stop stop-color="#630CD2"/>
<stop offset="1" stop-color="#F95F86"/>
</linearGradient>
<linearGradient id="paint33_linear_3351_7781" x1="35.3113" y1="20.0471" x2="37.3792" y2="20.0471" gradientUnits="userSpaceOnUse">
<stop stop-color="#630CD2"/>
<stop offset="1" stop-color="#F95F86"/>
</linearGradient>
</defs>
</svg>
