<svg width="24" height="25" viewBox="0 0 24 25" fill="none" xmlns="http://www.w3.org/2000/svg">
<mask id="mask0_4509_5587" style="mask-type:alpha" maskUnits="userSpaceOnUse" x="3" y="1" width="18" height="22">
<path fill-rule="evenodd" clip-rule="evenodd" d="M19 6.98828H17C17 4.22828 14.76 1.98828 12 1.98828C9.24 1.98828 7 4.22828 7 6.98828H5C3.9 6.98828 3 7.88828 3 8.98828V20.9883C3 22.0883 3.9 22.9883 5 22.9883H19C20.1 22.9883 21 22.0883 21 20.9883V8.98828C21 7.88828 20.1 6.98828 19 6.98828ZM14.0141 18.4142L12.005 17.0687L9.99592 18.4226C9.69054 18.6244 9.29675 18.3301 9.39319 17.9601L9.99592 15.5382L8.14755 13.9572C7.86628 13.7133 8.01093 13.234 8.3806 13.2087L10.7594 13.0658L11.6273 10.7532C11.7639 10.4 12.2461 10.4 12.3747 10.7532L13.2426 13.0742L15.6214 13.2172C15.983 13.2424 16.1357 13.7217 15.8544 13.9656L14.0061 15.5466L14.6168 17.9517C14.7133 18.3301 14.3195 18.6244 14.0141 18.4142ZM15 6.98828C15 5.32828 13.66 3.98828 12 3.98828C10.34 3.98828 9 5.32828 9 6.98828H15Z" fill="black"/>
</mask>
<g mask="url(#mask0_4509_5587)">
<rect y="0.488281" width="24" height="24" fill="url(#paint0_linear_4509_5587)"/>
</g>
<defs>
<linearGradient id="paint0_linear_4509_5587" x1="2.51527e-08" y1="12.2434" x2="24" y2="12.2434" gradientUnits="userSpaceOnUse">
<stop stop-color="#630CD2"/>
<stop offset="1" stop-color="#F95F86"/>
</linearGradient>
</defs>
</svg>
